<svg width="96" height="96" viewBox="0 0 96 96" fill="none" xmlns="http://www.w3.org/2000/svg" role="img" aria-labelledby="title desc">
  <title id="title">Logo Garaje Aimar</title>
  <desc id="desc">Icono circular de garaje con techo y auto.</desc>

  <circle cx="48" cy="48" r="45" fill="url(#circle)"/>
  <circle cx="48" cy="48" r="43.5" stroke="url(#rim)" stroke-width="3" opacity="0.95"/>
  <circle cx="30" cy="22" r="17" fill="#F7FAFF" opacity="0.08"/>
  <circle cx="70" cy="74" r="20" fill="#8DE2D2" opacity="0.08"/>

  <path d="M21.5 39.5L48 21.5L74.5 39.5H68.2V69.5H27.8V39.5H21.5Z" fill="#F7FAFF"/>
  <path d="M31.8 42.6H64.2V69.5H31.8V42.6Z" fill="#DCE6FF"/>
  <path d="M36 47H60" stroke="#9DB7FF" stroke-width="2.8" stroke-linecap="round"/>
  <path d="M36 53.5H60" stroke="#9DB7FF" stroke-width="2.8" stroke-linecap="round"/>
  <path d="M36 60H60" stroke="#9DB7FF" stroke-width="2.8" stroke-linecap="round"/>

  <path d="M33.5 69.5L38 58.8C38.8 56.9 40.7 55.7 42.7 55.7H53.3C55.3 55.7 57.2 56.9 58 58.8L62.5 69.5H33.5Z" fill="#17233A"/>
  <path d="M39.9 60.9H56.1L58 65.4H38L39.9 60.9Z" fill="#F7FAFF"/>
  <path d="M41.8 60.9H54.2L55.3 63.5H40.7L41.8 60.9Z" fill="#9DB7FF" opacity="0.72"/>
  <circle cx="40.8" cy="69" r="4.4" fill="#F7FAFF"/>
  <circle cx="55.2" cy="69" r="4.4" fill="#F7FAFF"/>
  <circle cx="40.8" cy="69" r="2" fill="#17233A"/>
  <circle cx="55.2" cy="69" r="2" fill="#17233A"/>
  <path d="M34.5 69.5H61.5" stroke="#8DE2D2" stroke-width="2.5" stroke-linecap="round" opacity="0.9"/>

  <defs>
    <linearGradient id="circle" x1="15" y1="10" x2="82" y2="88" gradientUnits="userSpaceOnUse">
      <stop stop-color="#AFC1FF"/>
      <stop offset="0.48" stop-color="#7488E8"/>
      <stop offset="1" stop-color="#17233A"/>
    </linearGradient>
    <linearGradient id="rim" x1="15" y1="7" x2="83" y2="90" gradientUnits="userSpaceOnUse">
      <stop stop-color="#F7FAFF" stop-opacity="0.75"/>
      <stop offset="0.52" stop-color="#9DB7FF" stop-opacity="0.8"/>
      <stop offset="1" stop-color="#8DE2D2" stop-opacity="0.7"/>
    </linearGradient>
  </defs>
</svg>
